<svg xmlns="http://www.w3.org/2000/svg" width="1036" height="512" viewBox="0 0 1036 512" fill="none"><metadata><rdf:RDF xmlns:rdf="http://www.w3.org/1999/02/22-rdf-syntax-ns#" xmlns:dc="http://purl.org/dc/elements/1.1/"><rdf:Description><dc:creator>RealFaviconGenerator</dc:creator><dc:source>https://realfavicongenerator.net</dc:source></rdf:Description></rdf:RDF></metadata><path d="M942 363.6C923.488 363.6 905.391 358.111 889.999 347.826C874.606 337.541 862.61 322.923 855.525 305.819C848.441 288.716 846.587 269.896 850.199 251.74C853.81 233.583 862.725 216.905 875.815 203.815C888.905 190.725 905.583 181.81 923.74 178.199C941.896 174.587 960.716 176.441 977.82 183.525C994.923 190.609 1009.54 202.606 1019.83 217.999C1030.11 233.391 1035.6 251.488 1035.6 270C1035.57 294.816 1025.7 318.606 1008.15 336.153C990.606 353.7 966.816 363.571 942 363.6ZM942 207.6C929.659 207.6 917.594 211.26 907.333 218.117C897.071 224.973 889.073 234.719 884.35 246.121C879.627 257.523 878.392 270.069 880.799 282.174C883.207 294.278 889.15 305.397 897.877 314.124C906.604 322.85 917.722 328.793 929.827 331.201C941.931 333.609 954.478 332.373 965.88 327.65C977.282 322.927 987.027 314.929 993.884 304.668C1000.74 294.406 1004.4 282.342 1004.4 270C1004.38 253.456 997.802 237.595 986.103 225.897C974.405 214.199 958.544 207.619 942 207.6Z" fill="#0A0A0A"></path><path d="M823.5 186H792.5V356H823.5V186Z" fill="#0A0A0A"></path><path fill-rule="evenodd" clip-rule="evenodd" d="M807.94 100.13C803.208 100.154 798.588 101.58 794.666 104.228C790.743 106.876 787.693 110.627 785.902 115.008C784.11 119.388 783.657 124.202 784.6 128.84C785.543 133.477 787.84 137.732 791.2 141.065C794.559 144.398 798.832 146.661 803.477 147.567C808.122 148.473 812.932 147.982 817.298 146.156C821.664 144.33 825.391 141.25 828.008 137.307C830.625 133.363 832.014 128.733 832 124V123.92C831.979 117.569 829.441 111.485 824.943 107.001C820.444 102.518 814.352 100 808 100" fill="#0A0A0A"></path><path d="M670 176.4C646.921 176.392 624.659 184.943 607.52 200.4V84.0001H576.52V266.34C576.47 267.56 576.44 268.77 576.44 270C576.44 288.514 581.931 306.612 592.218 322.006C602.504 337.399 617.125 349.396 634.23 356.479C651.336 363.562 670.158 365.413 688.315 361.799C706.473 358.184 723.151 349.265 736.24 336.171C749.328 323.077 758.24 306.395 761.847 288.236C765.454 270.077 763.594 251.256 756.504 234.153C749.413 217.051 737.41 202.435 722.013 192.155C706.615 181.875 688.514 176.392 670 176.4ZM670 332.4C657.659 332.4 645.594 328.74 635.333 321.884C625.071 315.027 617.073 305.282 612.35 293.88C607.627 282.477 606.392 269.931 608.799 257.826C611.207 245.722 617.15 234.603 625.877 225.877C634.604 217.15 645.722 211.207 657.827 208.799C669.931 206.391 682.478 207.627 693.88 212.35C705.282 217.073 715.027 225.071 721.884 235.333C728.741 245.594 732.4 257.659 732.4 270C732.382 286.544 725.802 302.405 714.103 314.103C702.405 325.801 686.544 332.382 670 332.4Z" fill="#0A0A0A"></path><path fill-rule="evenodd" clip-rule="evenodd" d="M447.83 384.35C435.213 384.417 422.899 388.223 412.443 395.285C401.987 402.347 393.859 412.35 389.085 424.03C384.312 435.709 383.107 448.542 385.622 460.906C388.138 473.27 394.262 484.611 403.22 493.497C412.178 502.383 423.569 508.414 435.953 510.829C448.337 513.244 461.159 511.935 472.8 507.066C484.44 502.198 494.377 493.988 501.354 483.475C508.331 472.962 512.036 460.618 512 448V447.77C511.963 430.829 505.201 414.595 493.2 402.638C481.199 390.68 464.942 383.976 448 384H447.88M223.88 7.47703e-05C347.54 -0.0999252 447.9 100.12 448 223.83C448.1 347.54 347.88 447.9 224.17 448H224.07C100.45 447.92 0.210329 347.8 0.000329061 224.17C-0.209671 100.54 100.12 0.100075 223.83 7.47703e-05M364 224C364 251.689 355.789 278.757 340.406 301.78C325.023 324.803 303.158 342.747 277.576 353.343C251.994 363.939 223.845 366.712 196.688 361.31C169.53 355.908 144.585 342.574 125.005 322.995C105.426 303.416 92.0923 278.47 86.6904 251.313C81.2885 224.155 84.0609 196.006 94.6572 170.424C105.253 144.843 123.198 122.978 146.22 107.594C169.243 92.2109 196.311 84.0001 224 84.0001C261.131 84.0001 296.74 98.75 322.995 125.005C349.25 151.26 364 186.87 364 224Z" fill="#0869E9"></path></svg>